<?xml version="1.0" encoding="UTF-8" standalone="no"?>
<!DOCTYPE svg PUBLIC "-//W3C//DTD SVG 20010904//EN"
              "http://www.w3.org/TR/2001/REC-SVG-20010904/DTD/svg10.dtd">

<svg xmlns="http://www.w3.org/2000/svg"
     viewBox="0 0 1920 300">
  <!-- <path fill="rgb(251, 175, 175)"
          d="M -57.00,150.00
           C -60.00,150.00 -51.00,147.00 -51.00,147.00
             -51.00,147.00 246.00,300.00 975.00,294.00
             1704.00,288.00 1992.00,165.00 2004.00,162.00
             2016.00,159.00 1977.00,336.00 1977.00,336.00
             1977.00,336.00 1026.00,375.00 1023.00,375.00
             1020.00,375.00 12.00,375.00 12.00,375.00
             12.00,375.00 -51.00,378.00 -51.00,375.00
             -51.00,372.00 -63.00,171.00 -63.00,171.00" /> -->
<path fill="#efe9eb"
          d="M -57.00,150.00
           C -60.00,150.00 -51.00,147.00 -51.00,147.00
             -51.00,147.00 246.00,300.00 975.00,294.00
             1704.00,288.00 1992.00,165.00 2004.00,162.00
             2016.00,159.00 1977.00,336.00 1977.00,336.00
             1977.00,336.00 1026.00,375.00 1023.00,375.00
             1020.00,375.00 12.00,375.00 12.00,375.00
             12.00,375.00 -51.00,378.00 -51.00,375.00
             -51.00,372.00 -63.00,171.00 -63.00,171.00" />
</svg>
