<svg width="50" height="50" viewBox="0 0 50 50" fill="none" xmlns="http://www.w3.org/2000/svg">
<path d="M50 25C50 11.1915 38.8085 0 25 0C11.1915 0 0 11.1915 0 25C0 37.4805 9.14062 47.8223 21.0938 49.6973V32.2266H14.746V25H21.0938V19.4922C21.0938 13.2275 24.8243 9.76562 30.5371 9.76562C33.2715 9.76562 36.1328 10.2539 36.1328 10.2539V16.4062H32.9785C29.873 16.4062 28.9062 18.335 28.9062 20.3125V25H35.8398L34.7315 32.2266H28.9062V49.6973C40.8594 47.8223 50 37.4805 50 25Z" fill="#1877F2"/>
<path d="M34.7314 32.2266L35.8398 25H28.9062V20.3125C28.9062 18.335 29.873 16.4062 32.9785 16.4062H36.1328V10.2539C36.1328 10.2539 33.2714 9.76562 30.5371 9.76562C24.8243 9.76562 21.0937 13.2275 21.0937 19.4922V25H14.746V32.2266H21.0937V49.6973C22.3681 49.8975 23.6719 50 25 50C26.3281 50 27.6319 49.8975 28.9062 49.6973V32.2266H34.7314Z" fill="white"/>
</svg>
