<svg width="50" height="50" viewBox="0 0 50 50" fill="none" xmlns="http://www.w3.org/2000/svg">
<path d="M25 50C38.8071 50 50 38.8071 50 25C50 11.1929 38.8071 0 25 0C11.1929 0 0 11.1929 0 25C0 38.8071 11.1929 50 25 50Z" fill="url(#paint0_linear)"/>
<path d="M9.31061 26.2229C12.2331 24.6131 15.4954 23.2696 18.5435 21.9192C23.7875 19.7073 29.0523 17.5337 34.3702 15.5102C35.4049 15.1654 37.2639 14.8282 37.4462 16.3615C37.3464 18.532 36.9358 20.6897 36.6541 22.8474C35.9392 27.5924 35.113 32.3212 34.3073 37.0506C34.0297 38.6259 32.0562 39.4414 30.7935 38.4333C27.7589 36.3835 24.701 34.3537 21.7052 32.2564C20.7238 31.2592 21.6338 29.8272 22.5103 29.1151C25.0097 26.652 27.6603 24.5593 30.029 21.9688C30.668 20.4258 28.7801 21.7262 28.1574 22.1247C24.7357 24.4826 21.3978 26.9845 17.7903 29.0568C15.9476 30.0712 13.7999 29.2043 11.958 28.6383C10.3065 27.9545 7.88649 27.2656 9.31045 26.223L9.31061 26.2229Z" fill="white"/>
<defs>
<linearGradient id="paint0_linear" x1="18.7529" y1="2.085" x2="6.25291" y2="31.25" gradientUnits="userSpaceOnUse">
<stop stop-color="#37AEE2"/>
<stop offset="1" stop-color="#1E96C8"/>
</linearGradient>
</defs>
</svg>
