<svg width="50" height="50" viewBox="0 0 50 50" fill="none" xmlns="http://www.w3.org/2000/svg">
<path d="M0 25C0 11.1929 11.1929 0 25 0C38.8071 0 50 11.1929 50 25C50 38.8071 38.8071 50 25 50C11.1929 50 0 38.8071 0 25Z" fill="#FF0000"/>
<path d="M37.7761 18.8263C37.4694 17.6481 36.5658 16.7204 35.4184 16.4056C33.339 15.8333 25 15.8333 25 15.8333C25 15.8333 16.6611 15.8333 14.5815 16.4056C13.4341 16.7204 12.5305 17.6481 12.2238 18.8263C11.6667 20.9615 11.6667 25.4167 11.6667 25.4167C11.6667 25.4167 11.6667 29.8717 12.2238 32.0071C12.5305 33.1852 13.4341 34.1129 14.5815 34.4279C16.6611 35 25 35 25 35C25 35 33.339 35 35.4184 34.4279C36.5658 34.1129 37.4694 33.1852 37.7761 32.0071C38.3333 29.8717 38.3333 25.4167 38.3333 25.4167C38.3333 25.4167 38.3333 20.9615 37.7761 18.8263Z" fill="white"/>
<path d="M22.5 30V21.6667L29.1667 25.8335L22.5 30Z" fill="#FF0000"/>
</svg>
